HIERARCHY
ROOT Hips
{
	OFFSET 0.000000 0.000000 0.000000
	CHANNELS 6 Xposition Yposition Zposition Xrotation Yrotation Zrotation
	JOINT LeftUpLeg_virtual
	{
		OFFSET 0.000000 0.000000 0.000000
		CHANNELS 3 Xrotation Yrotation Zrotation
		JOINT LeftUpLeg
		{
			OFFSET 11.394100 -6.187798 -0.413800
			CHANNELS 3 Xrotation Yrotation Zrotation
			JOINT LeftLeg
			{
				OFFSET 0.430247 -32.302673 3.732800
				CHANNELS 3 Xrotation Yrotation Zrotation
				JOINT LeftFoot
				{
					OFFSET -0.430247 -48.264931 -6.423300
					CHANNELS 3 Xrotation Yrotation Zrotation
					JOINT LeftToeBase
					{
						OFFSET 4.230900 -16.068199 23.438400
						CHANNELS 3 Xrotation Yrotation Zrotation
						JOINT LeftToe_End
						{
							OFFSET 4.510700 0.695400 19.974600
							CHANNELS 3 Xrotation Yrotation Zrotation
							End Site
							{
								OFFSET 0 0 0
							}
						}
					}
				}
			}
		}
	}
	JOINT RightUpLeg_virtual
	{
		OFFSET 0.000000 0.000000 0.000000
		CHANNELS 3 Xrotation Yrotation Zrotation
		JOINT RightUpLeg
		{
			OFFSET -11.333700 -6.187798 -0.413800
			CHANNELS 3 Xrotation Yrotation Zrotation
			JOINT RightLeg
			{
				OFFSET -0.430392 -32.302628 3.733000
				CHANNELS 3 Xrotation Yrotation Zrotation
				JOINT RightFoot
				{
					OFFSET 0.430392 -48.264973 -6.423500
					CHANNELS 3 Xrotation Yrotation Zrotation
					JOINT RightToeBase
					{
						OFFSET -4.230900 -16.068199 23.438400
						CHANNELS 3 Xrotation Yrotation Zrotation
						JOINT RightToe_End
						{
							OFFSET -4.510700 0.695400 19.974600
							CHANNELS 3 Xrotation Yrotation Zrotation
							End Site
							{
								OFFSET 0 0 0
							}
						}
					}
				}
			}
		}
	}
	JOINT Spine_virtual
	{
		OFFSET 0.000000 0.000000 0.000000
		CHANNELS 3 Xrotation Yrotation Zrotation
		JOINT Spine
		{
			OFFSET -0.002400 12.777504 0.315300
			CHANNELS 3 Xrotation Yrotation Zrotation
			JOINT Spine1
			{
				OFFSET -0.002067 5.816869 0.032633
				CHANNELS 3 Xrotation Yrotation Zrotation
				JOINT Spine1_split
				{
					OFFSET -0.002067 5.816869 0.032633
					CHANNELS 3 Xrotation Yrotation Zrotation
					JOINT Spine2
					{
						OFFSET -0.002067 5.816869 0.032633
						CHANNELS 3 Xrotation Yrotation Zrotation
						JOINT Neck_virtual
						{
							OFFSET 0.000000 0.000000 0.000000
							CHANNELS 3 Xrotation Yrotation Zrotation
							JOINT Neck
							{
								OFFSET -0.003700 21.199493 -0.826900
								CHANNELS 3 Xrotation Yrotation Zrotation
								JOINT Head
								{
									OFFSET 0.000000 20.442200 4.834800
									CHANNELS 3 Xrotation Yrotation Zrotation
									JOINT HeadTop_End
									{
										OFFSET 0.000000 34.668396 4.968400
										CHANNELS 3 Xrotation Yrotation Zrotation
										End Site
										{
											OFFSET 0 0 0
										}
									}
								}
							}
						}
						JOINT LeftShoulder_virtual
						{
							OFFSET 0.000000 0.000000 0.000000
							CHANNELS 3 Xrotation Yrotation Zrotation
							JOINT LeftShoulder
							{
								OFFSET 3.288150 8.794197 -1.372250
								CHANNELS 3 Xrotation Yrotation Zrotation
								JOINT LeftShoulder_split
								{
									OFFSET 3.288150 8.794197 -1.372250
									CHANNELS 3 Xrotation Yrotation Zrotation
									JOINT LeftArm
									{
										OFFSET 11.953299 -2.279007 -0.146200
										CHANNELS 3 Xrotation Yrotation Zrotation
										JOINT LeftForeArm
										{
											OFFSET 18.448900 0.000000 0.000000
											CHANNELS 3 Xrotation Yrotation Zrotation
											JOINT LeftHand
											{
												OFFSET 29.527798 0.000000 0.000000
												CHANNELS 3 Xrotation Yrotation Zrotation
												End Site
												{
													OFFSET 0 0 0
												}
											}
										}
									}
								}
							}
						}
						JOINT RightShoulder_virtual
						{
							OFFSET 0.000000 0.000000 0.000000
							CHANNELS 3 Xrotation Yrotation Zrotation
							JOINT RightShoulder
							{
								OFFSET -3.249400 8.794197 -1.372250
								CHANNELS 3 Xrotation Yrotation Zrotation
								JOINT RightShoulder_split
								{
									OFFSET -3.249400 8.794197 -1.372250
									CHANNELS 3 Xrotation Yrotation Zrotation
									JOINT RightArm
									{
										OFFSET -11.953299 -2.279007 -0.146200
										CHANNELS 3 Xrotation Yrotation Zrotation
										JOINT RightForeArm
										{
											OFFSET -18.448900 0.000000 0.000000
											CHANNELS 3 Xrotation Yrotation Zrotation
											JOINT RightHand
											{
												OFFSET -29.527802 0.000000 0.000000
												CHANNELS 3 Xrotation Yrotation Zrotation
												End Site
												{
													OFFSET 0 0 0
												}
											}
										}
									}
								}
							}
						}
					}
				}
			}
		}
	}
}
MOTION
Frames: 6
Frame Time: 0.03333333
3.561236 147.691147 7.674240 0.000000 0.000000 0.000000 0.630409 -5.132994 15.505351 -94.157696 -2.588929 1.108404 56.941453 -3.106902 -7.508800 39.586929 -5.758217 25.624752 9.938128 -0.422081 -3.358223 0.000000 0.000000 0.000000 -4.847163 -0.769037 16.309771 -103.756229 4.793414 -24.840387 113.100372 11.302863 -7.165399 45.129983 -10.125869 2.974563 55.560758 2.452626 9.844993 0.000000 0.000000 0.000000 -5.665298 2.760494 17.323914 32.460361 -9.520950 -7.879480 0.835505 -3.623342 -0.387507 0.380201 -1.048309 -0.097377 0.000000 0.000000 0.000000 5.765600 0.263064 0.717227 -7.890955 9.629577 6.564420 -17.567641 5.883695 -27.239110 0.000000 0.000000 0.000000 0.949464 -0.951398 -2.126094 12.271797 -25.527777 25.823161 -1.071543 1.492362 3.938945 -38.821890 13.303289 17.637920 -38.283787 -57.496539 -18.134253 0.000000 0.000000 0.000000 4.120272 -1.051694 -1.008750 1.946148 2.433471 -17.682125 10.686992 6.281274 -3.263086 -71.398986 3.463274 -26.180206 -48.118676 46.295968 48.419785 0.000000 0.000000 0.000000 
2.288892 147.939667 15.087978 0.000000 0.000000 0.000000 -0.021479 -4.970308 15.260420 -93.568858 -3.186834 1.970139 54.454359 -3.924350 -7.263221 40.536438 -4.939972 25.096340 11.186001 -0.029565 -4.377220 0.000000 0.000000 0.000000 -3.178878 -2.613306 16.679496 -98.161389 2.378667 -24.580826 106.424210 10.269302 -5.622636 40.993904 -10.096878 5.602020 42.236452 1.326909 7.697043 0.000000 0.000000 0.000000 -5.055008 2.747729 16.451552 30.996782 -9.348976 -7.850228 0.203505 -3.795332 -0.683889 0.074946 -0.964472 -0.264498 0.000000 0.000000 0.000000 5.283959 -0.049430 0.272979 -6.557946 9.886119 5.894552 -18.045507 8.057929 -27.802881 0.000000 0.000000 0.000000 0.269904 -1.204163 -2.707938 11.471919 -24.762904 24.279041 -0.441113 0.821585 3.759492 -37.175944 12.056156 17.638417 -42.131445 -58.380284 -22.209366 0.000000 0.000000 0.000000 3.732305 -1.411202 -1.410107 1.813317 1.639083 -17.040325 11.633845 6.522350 -0.654826 -70.097412 1.776425 -25.356410 -48.871069 46.991367 49.597637 0.000000 0.000000 0.000000 
1.025227 148.044556 24.694830 0.000000 0.000000 0.000000 -0.212784 -5.962700 14.970147 -88.304777 -3.368358 2.221203 46.184896 -3.127407 -6.809173 40.672482 -3.065299 23.795575 10.466807 0.319648 -4.781906 0.000000 0.000000 0.000000 -1.345470 -6.578939 16.717603 -87.152278 -1.845445 -23.830540 92.838411 8.961107 -4.201812 35.484708 -11.391995 8.232924 28.659518 2.159577 7.999793 0.000000 0.000000 0.000000 -4.044265 1.394714 15.466492 27.855670 -8.678029 -7.436531 -0.099358 -4.299333 -1.670345 -0.072647 -0.683533 -0.188480 0.000000 0.000000 0.000000 5.259276 -0.787308 -0.959067 -4.864189 10.119230 4.938197 -19.148374 10.018788 -27.927836 0.000000 0.000000 0.000000 0.171790 -1.853324 -3.815351 9.927442 -23.270350 20.648816 -0.404797 -0.501501 3.095450 -35.384003 8.188674 16.935111 -42.791569 -57.681733 -23.945235 0.000000 0.000000 0.000000 3.800355 -2.139495 -2.393455 2.094658 2.135193 -15.149674 11.237077 6.383871 0.001633 -67.744610 -0.699521 -24.303155 -50.850355 48.909748 51.962433 0.000000 0.000000 0.000000 
0.261148 147.408173 34.847691 0.000000 0.000000 0.000000 -0.298999 -8.116995 14.417684 -80.725692 -3.839553 2.464088 36.047058 -2.624062 -5.634650 42.634311 -1.230253 20.179155 8.909802 0.551443 -5.933468 0.000000 0.000000 0.000000 0.026015 -11.418729 16.190461 -72.649929 -6.919596 -21.990916 74.229465 7.369609 -3.086225 30.495306 -13.815801 10.536838 18.541124 3.986742 11.100341 0.000000 0.000000 0.000000 -3.335026 -0.900175 14.546500 23.703053 -7.492475 -6.589178 0.077685 -5.025917 -3.259684 -0.053554 -0.405851 0.036098 0.000000 0.000000 0.000000 5.630763 -1.737580 -2.767184 -3.074242 10.224008 4.048019 -20.831720 10.901726 -27.254159 0.000000 0.000000 0.000000 0.690635 -2.735727 -5.359025 7.917110 -21.379081 15.351205 -0.450359 -0.891119 2.877268 -34.803447 2.519674 15.685796 -39.740032 -55.992303 -22.779430 0.000000 0.000000 0.000000 4.217598 -3.074643 -3.851145 2.695227 4.018269 -12.415783 9.845204 6.144839 -0.501437 -65.121476 -3.115545 -23.567450 -52.993518 51.364713 54.376874 0.000000 0.000000 0.000000 
-0.313504 145.301468 45.557438 0.000000 0.000000 0.000000 -0.556108 -12.360962 13.590329 -73.135405 -4.818604 3.481058 27.541770 -3.731585 -3.976264 47.804979 -0.717026 13.901463 6.056204 0.662126 -7.476929 0.000000 0.000000 0.000000 0.726272 -16.038075 15.049369 -57.257961 -11.829638 -19.083685 54.912108 5.969628 -2.621442 26.363810 -16.251872 13.174410 10.077563 5.843742 15.183094 0.000000 0.000000 0.000000 -2.995524 -3.803905 13.615216 19.417557 -5.770204 -5.237227 0.661498 -5.764140 -5.257060 0.040768 -0.296983 0.282007 0.000000 0.000000 0.000000 6.277896 -2.608087 -4.913204 -1.641219 10.256788 3.442014 -23.129913 10.540455 -25.451360 0.000000 0.000000 0.000000 1.592416 -3.621831 -7.125752 5.867054 -19.400879 9.738113 0.450083 -0.643416 3.580942 -36.427339 -3.280951 13.905294 -33.688317 -53.724513 -19.177988 0.000000 0.000000 0.000000 4.876226 -3.976815 -5.632050 3.323254 7.160540 -9.323041 8.526777 6.828419 -1.086764 -63.240469 -4.847002 -23.583083 -54.101720 53.702164 55.669928 0.000000 0.000000 0.000000 
-0.847853 140.648224 55.489803 0.000000 0.000000 0.000000 -1.378174 -18.862826 12.448197 -66.005165 -6.192425 5.472820 21.548434 -6.084514 -2.056381 53.481723 -1.817812 7.019713 0.856074 0.547030 -7.976013 0.000000 0.000000 0.000000 0.444471 -19.727786 13.319267 -43.579810 -15.643816 -15.639928 39.896866 5.365993 -2.726801 22.262202 -17.739260 16.212847 0.586305 7.197243 17.880629 0.000000 0.000000 0.000000 -3.225395 -8.311161 12.661397 15.834578 -3.553989 -3.474982 1.511920 -6.185010 -7.419944 0.156103 -0.375430 0.437553 0.000000 0.000000 0.000000 7.018244 -3.180280 -7.024879 -0.710359 10.321527 3.236820 -25.916077 9.170057 -22.482690 0.000000 0.000000 0.000000 2.517238 -4.257530 -8.896572 4.092013 -17.415176 4.950500 2.043482 -0.031846 5.031452 -40.668831 -7.576611 11.183073 -26.135625 -51.776867 -14.367849 0.000000 0.000000 0.000000 5.573253 -4.620822 -7.465141 3.596570 11.267289 -6.362415 7.727162 8.084304 -0.993801 -63.311926 -5.382452 -24.722394 -53.458002 55.536466 55.014343 0.000000 0.000000 0.000000 
